<svg width="121" height="51" viewBox="0 0 121 51" fill="none" xmlns="http://www.w3.org/2000/svg">
<path d="M10.1574 50.1864L16.0841 31.1156L0.40686 20.0746H19.7804L25.8984 0L32.0164 20.0746H51.3899L35.7126 31.1156L41.6394 50.1864L25.8984 38.3926L10.1574 50.1864Z" fill="#C51924"/>
<path d="M82.903 46.1729L87.3751 31.5544L87.6906 30.5232L86.8135 29.8957L75.1829 21.5746H89.5793H90.6953L91.016 20.5056L95.6016 5.22015L100.187 20.5056L100.508 21.5746H101.624H116.02L104.39 29.8957L103.513 30.5232L103.828 31.5544L108.3 46.1729L96.5101 37.199L95.6016 36.5076L94.6932 37.199L82.903 46.1729Z" fill="white" stroke="#C51924" stroke-width="3"/>
</svg>
