<svg width="29" height="113" viewBox="0 0 29 113" fill="none" xmlns="http://www.w3.org/2000/svg">
<g clip-path="url(#clip0_16_19)">
<path d="M4.40137 111.885C3.80967 111.478 3.57304 110.915 3.58574 110.206C3.65655 106.256 3.70098 102.305 3.79817 98.3557C3.96085 91.9791 4.14899 85.6056 4.36257 79.2352C4.38679 78.7569 4.53711 78.2935 4.79829 77.892C6.78754 74.8932 8.8261 71.94 10.8126 68.9464C11.0694 68.5417 11.2097 68.074 11.2181 67.5948C11.2528 61.244 11.2532 54.894 11.2628 48.5441C11.2681 48.2473 11.2734 47.9519 11.2797 47.6024L15.6691 47.6811C15.6642 47.9541 15.659 48.2403 15.6539 48.5278C15.5976 54.9046 15.5348 61.2825 15.5076 67.6558C15.5291 68.0727 15.6913 68.47 15.9676 68.7829C17.9814 71.0381 20.0489 73.2455 22.0546 75.5085C22.3846 75.895 22.585 76.3753 22.6277 76.8817C22.9909 83.4085 23.3172 89.9372 23.6421 96.4659C23.8304 100.194 24.0134 103.922 24.1911 107.648C24.2308 108.525 24.4502 109.456 23.5022 110.087C22.6062 110.683 22.0568 110.642 21.4593 109.747C19.7888 107.258 18.1568 104.751 16.5089 102.251C16.3303 101.984 16.1517 101.717 15.9348 101.381C14.3868 102.36 12.8086 102.225 11.1687 101.559C10.9131 102.056 10.6728 102.506 10.4496 102.963C9.4373 105.042 8.41329 107.113 7.43511 109.204C6.89884 110.342 6.16043 111.275 5.05812 111.9L4.40137 111.885ZM18.3057 90.5585C17.9788 90.4682 17.8736 90.4492 17.7806 90.4105C17.1413 90.159 16.6958 90.428 16.2834 90.9114C15.871 91.3949 16.2089 91.7545 16.3928 92.1694C16.5653 92.5564 16.832 92.9847 16.7975 93.3641C16.5289 96.2764 18.0232 98.5883 19.3118 100.968C19.4396 101.197 19.7434 101.326 19.9737 101.507L20.4574 100.872C20.9907 101.296 21.4733 101.682 21.9572 102.064L22.1407 101.914C21.9265 101.426 21.7777 100.893 21.486 100.458C20.1494 98.476 19.7801 96.1869 19.3802 93.9157C19.2976 93.4419 19.4652 92.9238 19.5164 92.426L19.8484 92.3765L21.1366 94.1148C21.3459 92.3018 21.6769 90.6189 20.7811 88.9972C20.5255 88.5348 20.4182 87.9695 20.3275 87.4375C19.8055 84.3936 18.0422 82.0743 15.9441 79.9547C15.8112 79.8463 15.6669 79.7526 15.5138 79.6752C15.4419 79.7109 15.3687 79.7452 15.2968 79.7795C15.4909 80.5838 15.5411 81.4648 15.9136 82.172C16.3195 82.934 16.4143 83.6837 16.5052 84.4994C16.6352 85.5403 16.852 86.5685 17.1533 87.5732C17.3484 88.2443 17.7385 88.8582 18.0145 89.5097C18.1387 89.7903 18.1886 90.1012 18.3057 90.5585ZM19.5754 77.2835C19.9596 77.487 20.2393 77.6371 20.519 77.7859C20.6863 77.4301 20.9922 77.0714 20.988 76.7164C20.9836 76.2312 20.836 75.7581 20.5638 75.3565C19.5078 73.9144 18.4063 72.5058 17.2594 71.1307C16.9275 70.729 16.4027 70.4926 15.9676 70.184C15.9355 70.7983 15.7535 71.4547 15.9056 72.0195C16.1851 73.0615 16.6701 74.0478 17.049 75.0652C17.1751 75.3907 17.4068 75.8632 17.2766 76.0588C16.7339 76.8935 17.6738 77.9698 16.7936 78.7166C16.7494 78.754 16.8139 78.9808 16.882 79.0836C17.6006 80.1652 18.3258 81.242 19.0577 82.3141C19.5103 82.974 19.9776 83.6223 20.4543 84.2654C20.6823 84.5716 20.9464 84.8508 21.1945 85.1429L21.4349 84.9809C21.9471 82.1707 20.0416 79.9055 19.5754 77.2835ZM9.1234 88.7698L9.36923 88.9668C9.22977 89.3865 9.11252 89.8184 8.93378 90.2216C8.61478 90.9415 8.19621 91.6227 7.93101 92.3595C7.73233 92.8911 7.64928 93.4591 7.68741 94.0254C7.71841 94.3571 8.05364 94.7919 8.36262 94.9254C8.58779 95.0231 9.03578 94.762 9.30596 94.5571C9.67692 94.2787 10.0006 93.9424 10.2645 93.561C10.5355 93.1621 10.8526 92.6968 10.8738 92.2526C10.9975 89.6161 11.0704 86.9756 11.0923 84.3311C11.0961 83.6042 10.8545 82.8756 10.6934 81.9993C10.2189 82.5634 9.85091 82.9249 9.57421 83.3461C8.7603 84.5901 7.94627 85.8408 7.20807 87.1298C7.04331 87.4158 7.1275 87.8711 7.16438 88.2425C7.21559 88.7712 7.3288 89.301 7.41922 89.8501C7.67198 89.6607 7.93992 89.4333 8.23483 89.2473C8.52975 89.0613 8.8264 88.9254 9.1234 88.7698ZM13.4218 77.1428L13.2038 89.306C13.5031 88.7243 13.8169 88.2206 14.0246 87.6781C14.2514 87.0951 14.5065 86.4809 14.5333 85.8705C14.6138 84.0248 14.5889 82.1773 14.6088 80.3306C14.6302 79.1382 14.8041 77.8999 13.4271 77.1429L13.4218 77.1428ZM11.1645 73.0915C11.1418 72.7349 11.1366 72.2176 11.0573 71.7083C11.0269 71.494 10.8549 71.2996 10.7464 71.0958C10.5528 71.2242 10.3059 71.3056 10.1761 71.4814C9.75043 72.0437 9.34814 72.6262 8.97067 73.2224C8.45063 74.0443 7.91874 74.8646 7.48232 75.7315C7.36471 75.9629 7.50861 76.3996 7.66757 76.6584C7.72524 76.7531 8.18132 76.6293 8.44501 76.5655C8.62982 76.5198 8.8033 76.4367 8.95471 76.3213C9.47387 75.9163 9.92901 75.4033 10.4979 75.0956C11.3412 74.641 11.0903 73.9161 11.1697 73.0916L11.1645 73.0915ZM7.86954 82.6875C8.63633 82.0112 9.27002 81.5476 9.78686 80.9777C10.729 79.9391 11.2788 78.7114 11.0066 77.2592C10.9645 77.0355 10.729 76.8478 10.5823 76.642C10.4324 76.7634 10.2433 76.8576 10.1403 77.0101C9.68235 77.6814 9.25438 78.3716 8.80816 79.0497C8.13659 80.0813 7.94308 81.2349 7.87482 82.6876L7.86954 82.6875ZM9.1595 96.8396C9.75622 97.4809 9.49055 98.0963 9.04954 98.7045C8.94676 98.8296 8.87697 98.9785 8.84652 99.1376C8.83167 99.3035 8.91169 99.4765 8.95084 99.6474C9.1154 99.5936 9.31355 99.58 9.43546 99.4766C9.6221 99.3183 9.77917 99.1282 9.89939 98.915C10.342 98.1432 10.8135 97.3811 11.1659 96.5629C11.2856 96.2866 11.0833 95.8714 11.0276 95.5181C10.7615 95.6453 10.463 95.7349 10.229 95.9075C9.87056 96.1808 9.54801 96.5101 9.16477 96.8397L9.1595 96.8396ZM14.3487 97.7123C14.3615 96.9962 14.3877 96.2723 14.3875 95.5493C14.3825 94.5043 14.3186 94.4596 13.1969 94.6215C13.1845 95.3113 13.218 96.0178 13.1476 96.7118C13.0605 97.5929 13.4853 97.8143 14.3579 97.7125L14.3487 97.7123Z" fill="#C51924"/>
<path d="M26.1144 42.5315C23.8997 40.9086 21.6859 39.2857 19.473 37.6628C18.7033 37.1001 17.9459 36.5192 17.1437 36.0061C16.2606 35.4415 15.8397 35.6648 15.8198 36.6988C15.7587 40.1056 15.7188 43.5141 15.6696 46.9211L15.6561 47.6716L11.3432 47.5943L11.2366 37.6418C10.8164 37.8981 10.5698 38.0402 10.3386 38.2049C8.78955 39.317 7.26377 40.4547 5.69535 41.5427C4.84029 42.1383 3.45161 41.5896 3.17032 40.5739C3.12577 40.4095 3.23719 40.1556 3.35216 39.998C7.30996 34.5659 9.22423 28.3162 10.3094 21.8022C11.2668 16.0867 11.9664 10.3271 12.7791 4.58799C12.897 3.75231 13.0109 2.91657 13.1458 2.08779C13.2807 1.25902 13.8676 0.83415 14.6232 0.630003C15.0886 0.506409 15.4268 0.6985 15.51 1.20926C15.5478 1.42335 15.5647 1.64061 15.5604 1.85797C15.2301 10.7155 17.2135 19.1579 20.2603 27.378C22.0549 32.2206 24.0779 36.9775 25.9987 41.7734L26.264 42.4286L26.1144 42.5315Z" fill="#C51924"/>
<path d="M18.3057 90.5585C18.182 90.1011 18.1387 89.7903 18.0211 89.5098C17.7451 88.8584 17.355 88.2445 17.1599 87.5734C16.8585 86.5678 16.6417 85.5387 16.5119 84.4969C16.4183 83.6812 16.3262 82.9315 15.9203 82.1695C15.5372 81.4621 15.4936 80.5787 15.3035 79.7771C15.3754 79.7427 15.4485 79.7084 15.5204 79.6728C15.6736 79.7501 15.8179 79.8438 15.9508 79.9523C18.0488 82.0718 19.8122 84.3859 20.3341 87.435C20.4249 87.9644 20.5308 88.5323 20.7877 88.9947C21.6822 90.6164 21.3525 92.3032 21.1433 94.1123L19.8551 92.374L19.523 92.4235C19.4719 92.9213 19.3043 93.4394 19.3868 93.9132C19.7867 96.187 20.1573 98.4762 21.4886 100.461C21.7803 100.896 21.9291 101.429 22.1433 101.917L21.9598 102.067C21.4759 101.683 20.9933 101.299 20.46 100.875L19.9763 101.51C19.746 101.328 19.4383 101.198 19.3144 100.97C18.0219 98.5909 16.5315 96.2791 16.8001 93.3668C16.8347 92.9809 16.568 92.5526 16.3954 92.1722C16.2102 91.7572 15.8697 91.3975 16.286 90.9142C16.7023 90.4308 17.1438 90.167 17.7832 90.4133C17.8736 90.4492 17.9788 90.4682 18.3057 90.5585Z" fill="white"/>
<path d="M19.5754 77.2835C20.0416 79.9055 21.9471 82.1707 21.435 84.977L21.1999 85.1404C20.9518 84.8483 20.6824 84.569 20.4596 84.2629C19.983 83.6198 19.5157 82.9715 19.0631 82.3116C18.3293 81.243 17.6041 80.1661 16.8873 79.0811C16.8192 78.9783 16.7547 78.7515 16.7989 78.7141C17.6791 77.9672 16.7353 76.8909 17.2819 76.0563C17.4174 75.8582 17.1751 75.3947 17.0543 75.0627C16.6768 74.0453 16.1905 73.059 15.911 72.0169C15.7588 71.4522 15.9408 70.7958 15.9729 70.1815C16.408 70.4928 16.9329 70.7265 17.2647 71.1282C18.409 72.5059 19.5087 73.9153 20.5638 75.3565C20.8342 75.7587 20.9799 76.2317 20.9828 76.7163C20.987 77.0713 20.681 77.43 20.5137 77.7859C20.2393 77.6371 19.9596 77.487 19.5754 77.2835Z" fill="white"/>
<path d="M9.1234 88.7697C8.8264 88.9254 8.51788 89.061 8.23496 89.2406C7.95203 89.4203 7.6721 89.6541 7.41934 89.8435C7.32896 89.2917 7.21567 88.7672 7.1645 88.2359C7.12762 87.8645 7.04738 87.4092 7.20819 87.1231C7.95035 85.8342 8.75778 84.5835 9.57433 83.3394C9.84576 82.9181 10.219 82.5594 10.6935 81.9926C10.8507 82.8689 11.0962 83.5976 11.0924 84.3245C11.0724 86.9628 10.9995 89.6033 10.8739 92.2459C10.8526 92.6968 10.5342 93.1634 10.2646 93.5544C10.0007 93.9357 9.67704 94.2721 9.30608 94.5504C9.03853 94.7554 8.58791 95.0165 8.36274 94.9188C8.05383 94.7813 7.71325 94.3504 7.68753 94.0188C7.6494 93.4524 7.73245 92.8845 7.93113 92.3528C8.19633 91.6161 8.61622 90.9349 8.9339 90.215C9.11264 89.8118 9.22593 89.3798 9.36935 88.9602L9.1234 88.7697Z" fill="white"/>
<path d="M13.4271 77.1429C14.8041 77.8998 14.6301 79.1435 14.6181 80.3307C14.5982 82.1774 14.6231 84.025 14.5425 85.8706C14.5157 86.481 14.2567 87.0951 14.0338 87.6783C13.8222 88.2207 13.5084 88.7243 13.213 89.3061L13.4271 77.1429Z" fill="white"/>
<path d="M11.1697 73.0917C11.0916 73.9162 11.3398 74.6424 10.5085 75.0945C9.93958 75.4023 9.48444 75.9153 8.96527 76.3202C8.81386 76.4356 8.64039 76.5187 8.45558 76.5644C8.19057 76.6283 7.73581 76.7521 7.67814 76.6574C7.5192 76.3972 7.3753 75.9606 7.49289 75.7305C7.9293 74.8636 8.4612 74.0432 8.98124 73.2214C9.35871 72.6252 9.7609 72.0479 10.1867 71.4803C10.3217 71.3073 10.5633 71.2232 10.7569 71.0947C10.8654 71.2986 11.0374 71.4956 11.0679 71.7072C11.1419 72.2178 11.1471 72.7351 11.1697 73.0917Z" fill="white"/>
<path d="M7.8748 82.6878C7.94302 81.2377 8.13658 80.0815 8.81342 79.05C9.25965 78.3719 9.68762 77.6817 10.1456 77.0104C10.2486 76.8579 10.4376 76.7636 10.5876 76.6423C10.7343 76.8481 10.9697 77.0357 11.0119 77.2595C11.2826 78.7156 10.7383 79.9342 9.79213 80.978C9.27528 81.5479 8.6416 82.0115 7.8748 82.6878Z" fill="white"/>
<path d="M9.16476 96.8398C9.54812 96.5037 9.87055 96.1809 10.2369 95.9131C10.4708 95.7405 10.7693 95.6508 11.0354 95.5237C11.0911 95.8769 11.2935 96.2922 11.1737 96.5684C10.8214 97.3814 10.354 98.137 9.90719 98.9206C9.78697 99.1337 9.6299 99.3239 9.44327 99.4822C9.32136 99.5856 9.12321 99.5992 8.95865 99.653C8.91949 99.4821 8.83947 99.3091 8.85432 99.1431C8.88477 98.9841 8.95457 98.8352 9.05735 98.7101C9.49589 98.0926 9.76148 97.4812 9.16476 96.8398Z" fill="white"/>
<path d="M14.3579 97.7125C13.4893 97.8144 13.0645 97.593 13.1528 96.7119C13.2233 96.0179 13.1898 95.3115 13.2022 94.6217C14.3239 94.4597 14.3917 94.5044 14.3927 95.5494C14.393 96.2724 14.3708 96.9924 14.3579 97.7125Z" fill="white"/>
</g>
<defs>
<clipPath id="clip0_16_19">
<rect width="111.467" height="23.1391" fill="white" transform="translate(27.0127 0.804688) rotate(91.027)"/>
</clipPath>
</defs>
</svg>
